Coordinates
version=1
nRows=24
nColumns=24
inDegrees=yes

Units are S.I. units (second, meters, Newtons, ...)
If the header above contains a line with 'inDegrees', this indicates whether rotational values are in degrees (yes) or radians (no).

endheader
time	pelvis_tilt	pelvis_list	pelvis_rotation	pelvis_tx	pelvis_ty	pelvis_tz	lumbar_extension	lumbar_bending	lumbar_rotation	arm_flex_r	arm_add_r	arm_rot_r	elbow_flex_r	pro_sup_r	wrist_flex_r	wrist_dev_r	arm_flex_l	arm_add_l	arm_rot_l	elbow_flex_l	pro_sup_l	wrist_flex_l	wrist_dev_l
     22.86400000	    -11.93971611	      2.90307825	      3.03925087	      1.09485863	      0.89498052	      0.07011536	     -6.97361374	      5.62460423	      3.12320272	     16.76075338	    -18.49473868	     43.18792645	     12.12969570	     74.35136975	    -28.05835594	    -24.99999983	     28.74723178	    -17.54061118	     45.46311789	    121.87511701	     64.13716743	    -14.87419356	    -12.70640646
     22.86800000	    -11.91976864	      2.90434991	      3.06209599	      1.09514749	      0.89487366	      0.07000289	     -6.95359569	      5.62246844	      3.14836452	     16.71308076	    -18.54432869	     43.21985705	     12.13273670	     74.37089533	    -28.04153793	    -24.99999983	     28.86411514	    -17.41470846	     45.45593554	    122.23269011	     64.15531241	    -14.85466814	    -12.72145557
     22.87200000	    -11.87099662	      2.90361347	      3.02868652	      1.09560867	      0.89469028	      0.07000992	     -6.90137123	      5.62294064	      3.11984746	     16.68559836	    -18.56173788	     43.23352825	     12.13197306	     74.37848876	    -28.03411863	    -24.99999983	     28.97437470	    -17.31739750	     45.43411000	    122.43270680	     64.16558157	    -14.84461341	    -12.73273285
     22.87600000	    -11.92103053	      2.86751726	      3.05773570	      1.09518139	      0.89473217	      0.07058402	     -6.95704216	      5.58428140	      3.13568115	     16.69030516	    -18.55767868	     43.39499633	     12.32102400	     74.48352087	    -27.95320908	    -24.99999983	     29.14055467	    -17.36642444	     45.42706566	    123.05124231	     64.10594728	    -14.85550811	    -12.65092271
     22.88000000	    -11.90393042	      2.87185318	      3.07741900	      1.09537612	      0.89472654	      0.07040679	     -6.93959466	      5.58603079	      3.15831162	     16.63895627	    -18.58382685	     43.40654838	     12.27157842	     74.48635359	    -27.94251401	    -24.99999983	     29.25219097	    -17.21350378	     45.39831840	    123.32321657	     64.10894767	    -14.84855690	    -12.65723634
     22.88400000	    -11.88717938	      2.86965242	      3.08737836	      1.09558934	      0.89469258	      0.07038060	     -6.92238077	      5.58185355	      3.16957067	     16.59642390	    -18.58598353	     43.41940817	     12.24481177	     74.49060626	    -27.93262747	    -24.99999983	     29.35716829	    -17.06437362	     45.37207710	    123.56999750	     64.10589854	    -14.84238611	    -12.66596262
     22.88800000	    -11.86114473	      2.87301121	      3.09384631	      1.09592929	      0.89464066	      0.07034551	     -6.89477105	      5.58312256	      3.17901320	     16.53828676	    -18.59202200	     43.43226009	     12.22221029	     74.49510713	    -27.92382921	    -24.99999983	     29.49194941	    -16.95519415	     45.30857988	    123.76104553	     64.09279866	    -14.83113761	    -12.67533599
     22.89200000	    -12.11083918	      2.78406330	      3.21306113	      1.09162934	      0.89509845	      0.07191717	     -7.17784269	      5.48921797	      3.25223424	     17.09379505	    -18.40774808	     43.41300555	     12.06392449	     74.48135434	    -27.84270071	    -24.99999983	     30.54900978	    -17.16985403	     45.28443835	    124.20323068	     62.95180403	    -14.03882057	    -11.41402142
     22.89600000	    -12.09850807	      2.80196590	      3.25165843	      1.09169913	      0.89523058	      0.07165410	     -7.16538379	      5.50262048	      3.29537712	     17.03319813	    -18.46429712	     43.41538973	     12.03806872	     74.48085812	    -27.83813269	    -24.99999983	     30.65222747	    -17.09174499	     45.20794273	    124.45640658	     62.96593613	    -14.02173164	    -11.42846896
     22.90000000	    -12.08785819	      2.80277948	      3.26220733	      1.09180845	      0.89522659	      0.07158910	     -7.15458988	      5.50177376	      3.30724134	     17.00092673	    -18.48087668	     43.41845831	     12.03668496	     74.48123703	    -27.83460566	    -24.99999983	     30.72992939	    -16.99735990	     45.17139458	    124.68859929	     62.98339710	    -13.99898842	    -11.44016314
     22.90400000	    -12.09578273	      2.78787299	      3.27032671	      1.09175750	      0.89520065	      0.07164180	     -7.16414448	      5.48622944	      3.31224512	     16.99790566	    -18.48775991	     43.41925777	     12.04924772	     74.48062594	    -27.82880806	    -24.99999983	     30.76281334	    -16.85290119	     45.17919476	    125.01989499	     62.98926005	    -13.98351734	    -11.45298165
     22.90800000	    -12.13837238	      2.78142128	      3.17587885	      1.09140987	      0.89519707	      0.07168139	     -7.20457302	      5.49356222	      3.21437615	     17.14069282	    -18.50030730	     43.41971574	     12.23084116	     74.47840475	    -27.77550663	    -24.99999983	     30.62865406	    -16.66253176	     44.98320169	    125.51044455	     62.71549221	    -14.28299666	    -11.42438697
     22.91200000	    -12.12755984	      2.77841148	      3.19460256	      1.09155629	      0.89519357	      0.07161744	     -7.19399676	      5.48791647	      3.23381095	     17.10061818	    -18.49480999	     43.43008019	     12.19271004	     74.47819077	    -27.76793105	    -24.99999983	     30.68441129	    -16.49102446	     45.00005414	    125.72998697	     62.70138580	    -14.29990908	    -11.43247069
     22.91600000	    -12.11522777	      2.78022274	      3.20901834	      1.09169757	      0.89519004	      0.07152094	     -7.18146339	      5.48761602	      3.24996464	     17.06569705	    -18.50845806	     43.43599282	     12.16291698	     74.47744918	    -27.76165738	    -24.99999983	     30.73913593	    -16.36259284	     44.99825435	    125.94552027	     62.68193135	    -14.32129388	    -11.43857455
     22.92000000	    -12.10389667	      2.77923421	      3.22135693	      1.09181620	      0.89517942	      0.07147493	     -7.17014964	      5.48465430	      3.26329548	     17.03594375	    -18.51899019	     43.44032867	     12.14339925	     74.47666708	    -27.75605294	    -24.99999983	     30.78874887	    -16.24696120	     44.98669369	    126.15632348	     62.65979637	    -14.34428738	    -11.44249571
     22.92400000	    -12.09666671	      2.77921337	      3.23101851	      1.09189256	      0.89520275	      0.07145884	     -7.16283412	      5.48310673	      3.27358450	     17.01145349	    -18.52525752	     43.44500994	     12.13633693	     74.47525106	    -27.75093875	    -24.99999983	     30.82993670	    -16.14608341	     44.96829499	    126.35746060	     62.63173429	    -14.37172185	    -11.44227207
     22.92800000	    -12.08590689	      2.77550651	      3.23046455	      1.09198716	      0.89519715	      0.07150672	     -7.15172630	      5.47869829	      3.27324782	     16.98613501	    -18.52115367	     43.45391139	     12.14561866	     74.47314610	    -27.74659504	    -24.99999983	     30.87831139	    -16.05192027	     44.93702761	    126.53706688	     62.60872963	    -14.39811686	    -11.45009989
     22.93200000	    -12.07204126	      2.76646692	      3.23006185	      1.09214894	      0.89509796	      0.07159806	     -7.13786993	      5.46861105	      3.27231785	     16.95097236	    -18.51294555	     43.46528551	     12.15785163	     74.47006896	    -27.74172340	    -24.99999983	     30.94614007	    -15.96134466	     44.90231310	    126.73860221	     62.59772161	    -14.42110568	    -11.47812426
     22.93600000	    -12.06313927	      2.75608802	      3.23283962	      1.09225595	      0.89498335	      0.07167031	     -7.12959827	      5.45715382	      3.27399182	     16.92529102	    -18.51141709	     43.47653727	     12.17464485	     74.46538898	    -27.73671006	    -24.99999983	     31.00527547	    -15.89581609	     44.90156723	    126.98480491	     62.56838003	    -14.45248816	    -11.48899755
     22.94000000	    -12.05556013	      2.64655404	      3.26722505	      1.09199533	      0.89441606	      0.07357818	     -7.13291729	      5.33714677	      3.28130712	     16.92905935	    -18.24043274	     43.59091874	     12.11920598	     74.06883387	    -27.66533709	    -24.99999983	     31.54967913	    -16.18943001	     45.39476916	    127.53584340	     60.61305327	    -16.28767272	    -10.71571019
     22.94400000	    -12.01610970	      2.64773208	      3.24020209	      1.09254230	      0.89403791	      0.07337993	     -7.09077462	      5.34000405	      3.25934012	     16.88367988	    -18.26303382	     43.60171950	     12.10314289	     74.06649251	    -27.65793310	    -24.99999983	     31.69608055	    -16.14313773	     45.40570761	    127.74753227	     60.62875338	    -16.28994338	    -10.74785815
     22.94800000	    -11.99960691	      2.64645797	      3.25075472	      1.09276669	      0.89376842	      0.07335757	     -7.07480278	      5.33652547	      3.27097404	     16.87157801	    -18.25511248	     43.61520010	     12.05259991	     74.06362030	    -27.65197373	    -24.99999983	     31.78801812	    -16.08738906	     45.47071709	    127.93071836	     60.63593599	    -16.30003104	    -10.77556613
     22.95200000	    -11.97590979	      2.64368566	      3.23480896	      1.09291560	      0.89364837	      0.07336293	     -7.05024026	      5.33428630	      3.25687954	     16.86982169	    -18.23586533	     43.62135004	     12.03811355	     74.06308060	    -27.65085154	    -24.99999983	     31.84067967	    -16.04385092	     45.48494888	    128.00088530	     60.63673395	    -16.30550174	    -10.78632964
     22.95600000	    -11.98392609	      2.63535696	      3.26956191	      1.09289921	      0.89359968	      0.07356957	     -7.06065233	      5.32149446	      3.28799689	     16.85300977	    -18.20463407	     43.63744299	     11.99980580	     74.06326718	    -27.65102939	    -24.99999983	     31.90087452	    -15.97962641	     45.51572319	    128.14951864	     60.63315040	    -16.32292309	    -10.80747664
